<mxfile host="Electron" modified="2023-08-02T01:06:24.777Z" agent="Mozilla/5.0 (X11; Linux x86_64) AppleWebKit/537.36 (KHTML, like Gecko) draw.io/21.1.2 Chrome/106.0.5249.199 Electron/21.4.3 Safari/537.36" etag="96vT0QSiD8ZOep-llXC4" version="21.1.2" type="device">
  <diagram name="Page-1" id="ugAAJjNuRbZdJJsCgAGD">
    <mxGraphModel dx="1687" dy="986" grid="1" gridSize="10" guides="1" tooltips="1" connect="1" arrows="1" fold="1" page="1" pageScale="1" pageWidth="850" pageHeight="1100" math="0" shadow="0">
      <root>
        <mxCell id="0" />
        <mxCell id="1" parent="0" />
        <mxCell id="MoKUbTAUfLU3tfcFDSj0-3" style="edgeStyle=orthogonalEdgeStyle;rounded=0;orthogonalLoop=1;jettySize=auto;html=1;" edge="1" parent="1" source="MoKUbTAUfLU3tfcFDSj0-2" target="MoKUbTAUfLU3tfcFDSj0-6">
          <mxGeometry relative="1" as="geometry">
            <mxPoint x="210" y="140" as="targetPoint" />
          </mxGeometry>
        </mxCell>
        <mxCell id="MoKUbTAUfLU3tfcFDSj0-2" value="用户数据生产者" style="ellipse;shape=cloud;whiteSpace=wrap;html=1;" vertex="1" parent="1">
          <mxGeometry x="140" y="70" width="120" height="80" as="geometry" />
        </mxCell>
        <mxCell id="MoKUbTAUfLU3tfcFDSj0-8" style="edgeStyle=orthogonalEdgeStyle;rounded=0;orthogonalLoop=1;jettySize=auto;html=1;entryX=0.45;entryY=0.017;entryDx=0;entryDy=0;entryPerimeter=0;" edge="1" parent="1" source="MoKUbTAUfLU3tfcFDSj0-6" target="MoKUbTAUfLU3tfcFDSj0-7">
          <mxGeometry relative="1" as="geometry" />
        </mxCell>
        <mxCell id="MoKUbTAUfLU3tfcFDSj0-6" value="数据序列化" style="rounded=1;whiteSpace=wrap;html=1;" vertex="1" parent="1">
          <mxGeometry x="140" y="220" width="120" height="60" as="geometry" />
        </mxCell>
        <mxCell id="MoKUbTAUfLU3tfcFDSj0-10" value="" style="edgeStyle=orthogonalEdgeStyle;rounded=0;orthogonalLoop=1;jettySize=auto;html=1;" edge="1" parent="1" source="MoKUbTAUfLU3tfcFDSj0-7" target="MoKUbTAUfLU3tfcFDSj0-9">
          <mxGeometry relative="1" as="geometry" />
        </mxCell>
        <mxCell id="MoKUbTAUfLU3tfcFDSj0-7" value="Http Server" style="rounded=1;whiteSpace=wrap;html=1;" vertex="1" parent="1">
          <mxGeometry x="150" y="340" width="120" height="60" as="geometry" />
        </mxCell>
        <mxCell id="MoKUbTAUfLU3tfcFDSj0-12" value="" style="edgeStyle=orthogonalEdgeStyle;rounded=0;orthogonalLoop=1;jettySize=auto;html=1;" edge="1" parent="1" source="MoKUbTAUfLU3tfcFDSj0-9" target="MoKUbTAUfLU3tfcFDSj0-11">
          <mxGeometry relative="1" as="geometry" />
        </mxCell>
        <mxCell id="MoKUbTAUfLU3tfcFDSj0-9" value="反序列化" style="whiteSpace=wrap;html=1;rounded=1;" vertex="1" parent="1">
          <mxGeometry x="150" y="470" width="120" height="60" as="geometry" />
        </mxCell>
        <mxCell id="MoKUbTAUfLU3tfcFDSj0-14" value="" style="edgeStyle=orthogonalEdgeStyle;rounded=0;orthogonalLoop=1;jettySize=auto;html=1;" edge="1" parent="1" source="MoKUbTAUfLU3tfcFDSj0-11" target="MoKUbTAUfLU3tfcFDSj0-13">
          <mxGeometry relative="1" as="geometry" />
        </mxCell>
        <mxCell id="MoKUbTAUfLU3tfcFDSj0-11" value="基本数据处理" style="whiteSpace=wrap;html=1;rounded=1;" vertex="1" parent="1">
          <mxGeometry x="150" y="620" width="120" height="60" as="geometry" />
        </mxCell>
        <mxCell id="MoKUbTAUfLU3tfcFDSj0-13" value="业务操作" style="whiteSpace=wrap;html=1;rounded=1;" vertex="1" parent="1">
          <mxGeometry x="150" y="750" width="120" height="60" as="geometry" />
        </mxCell>
        <mxCell id="MoKUbTAUfLU3tfcFDSj0-28" style="edgeStyle=orthogonalEdgeStyle;rounded=0;orthogonalLoop=1;jettySize=auto;html=1;entryX=0.5;entryY=0;entryDx=0;entryDy=0;" edge="1" parent="1" source="MoKUbTAUfLU3tfcFDSj0-16" target="MoKUbTAUfLU3tfcFDSj0-26">
          <mxGeometry relative="1" as="geometry" />
        </mxCell>
        <mxCell id="MoKUbTAUfLU3tfcFDSj0-16" value="用户数据生产者" style="ellipse;shape=cloud;whiteSpace=wrap;html=1;" vertex="1" parent="1">
          <mxGeometry x="560" y="80" width="120" height="80" as="geometry" />
        </mxCell>
        <mxCell id="MoKUbTAUfLU3tfcFDSj0-25" value="业务操作" style="whiteSpace=wrap;html=1;rounded=1;" vertex="1" parent="1">
          <mxGeometry x="570" y="760" width="120" height="60" as="geometry" />
        </mxCell>
        <mxCell id="MoKUbTAUfLU3tfcFDSj0-29" style="edgeStyle=orthogonalEdgeStyle;rounded=0;orthogonalLoop=1;jettySize=auto;html=1;entryX=0.425;entryY=-0.067;entryDx=0;entryDy=0;entryPerimeter=0;" edge="1" parent="1" source="MoKUbTAUfLU3tfcFDSj0-26" target="MoKUbTAUfLU3tfcFDSj0-25">
          <mxGeometry relative="1" as="geometry" />
        </mxCell>
        <mxCell id="MoKUbTAUfLU3tfcFDSj0-26" value="Customized protocols" style="shape=process;whiteSpace=wrap;html=1;backgroundOutline=1;" vertex="1" parent="1">
          <mxGeometry x="560" y="390" width="120" height="60" as="geometry" />
        </mxCell>
        <mxCell id="MoKUbTAUfLU3tfcFDSj0-31" value="" style="shape=flexArrow;endArrow=classic;html=1;rounded=0;" edge="1" parent="1">
          <mxGeometry width="50" height="50" relative="1" as="geometry">
            <mxPoint x="300" y="370" as="sourcePoint" />
            <mxPoint x="500" y="370" as="targetPoint" />
          </mxGeometry>
        </mxCell>
      </root>
    </mxGraphModel>
  </diagram>
</mxfile>
